<?xml version="1.0" encoding="utf-8"?>
<!-- Generator: Adobe Illustrator 27.5.0, SVG Export Plug-In . SVG Version: 6.00 Build 0)  -->
<svg version="1.1" xmlns="http://www.w3.org/2000/svg" xmlns:xlink="http://www.w3.org/1999/xlink" x="0px" y="0px"
	 viewBox="0 0 500 500" style="enable-background:new 0 0 500 500;" xml:space="preserve">
<g id="BACKGROUND">
	<rect style="fill:#FFFFFF;" width="500" height="500"/>
</g>
<g id="OBJECT">
	<g>
		<path style="fill:#1C943C;" d="M425.49,222.786c-2.39,12.34-9.32,23.34-12.63,35.46c-8.01,29.26,5.38,63.01-9.19,89.63
			c-6.09,11.13-16.35,19.33-23.92,29.52c-8.29,11.15-13.24,24.52-21.67,35.56c-10.81,14.15-26.78,23.65-43.57,29.56
			c-16.79,5.91-34.53,8.51-52.15,11.08c-4.05,0.59-9.72,0.75-12.36,0.79V43.816c6.42,0.04,12.83,0.33,19.21,1.01
			c7.25,0.77,14.4,2.14,21.38,4.23c7.77,2.33,15.39,3.69,23.37,5.17c5.22,0.97,10.41,2.09,15.61,3.11
			c10.32,2.03,20.81,3.7,31.35,3.02c11.32-0.73,22.36-4.14,33.69-4.53c11.33-0.38,23.85,3.11,29.88,12.71
			c5.53,8.82,4.12,20.35,0.59,30.14c-3.54,9.79-8.99,18.92-11.27,29.08C406.77,159.236,431.62,191.116,425.49,222.786z"/>
		<path style="fill:#25C551;" d="M250,43.816v410.57c-0.92,0.01-1.47,0.01-1.47,0.01h-0.4c0,0-8.38,0-13.83-0.8
			c-17.62-2.57-35.36-5.17-52.15-11.08c-16.79-5.91-32.76-15.41-43.57-29.56c-8.44-11.04-13.38-24.41-21.67-35.56
			c-7.57-10.19-17.83-18.39-23.92-29.52c-14.57-26.62-1.18-60.37-9.19-89.631c-6.593-24.141-16.633-39.864-11.48-65.759
			c4.441-22.313,14.964-45.048,9.315-68.143c-2.467-10.085-7.933-19.189-10.994-29.11C64.989,76.92,72.513,59.378,92.587,56.44
			c14.616-2.139,28.707,2.979,43.153,3.916c11.26,0.73,22.45-1.23,33.44-3.43c10.35-2.07,21.35-2.98,31.41-6.2
			c15.59-4.98,31.13-6.92,47.54-6.92C248.75,43.806,249.38,43.806,250,43.816z"/>
		<path style="fill:#254F51;" d="M115.046,283.08c5.982,55.481,36.255,105.618,91.316,124.037
			c55.257,18.485,113.353-5.272,146.442-51.738c39.312-55.206,28.041-127.092,27.583-190.918
			c-0.066-9.169-0.218-18.338-0.506-27.504c-0.427-13.59-3.583-27.881-13.013-37.676c-22.974-23.866-66.124-13.275-95.233-13.275
			c-35.364,0-70.728,0-106.093,0c-19.093,0-37.671,8.011-44.984,26.962c-3.705,9.6-3.729,20.168-3.705,30.458
			C116.956,187.281,110.079,237.009,115.046,283.08z"/>
	</g>
	<g>
		<path style="fill:#1A3838;" d="M298.111,252.748c10.566,9.634,23.337,25.708,19.023,40.552
			c-5.253,18.075-27.716,18.001-42.867,12.201c-12.926-4.949-24.928-12.981-38.807-14.22c-11.896-1.062-23.564,3.039-35.428,4.384
			c-11.864,1.345-25.887-1.221-31.583-11.176c-6.329-11.059,1.153-24.954,11.088-33.299c9.934-8.345,22.468-14.028,30.609-23.966
			c3.702-4.518,6.406-9.825,10.864-13.681C249.182,189.178,280.972,237.121,298.111,252.748z M301.62,198.616
			c-5.607,6.185-10.51,13.187-9.576,20.456c0.935,7.269,9.799,14.459,20.324,13.826c6.493-0.39,12.085-3.609,15.348-7.506
			c3.263-3.896,4.551-8.415,5.522-12.866c1.51-6.92,8.253-25.964-2.549-30.772C317.833,176.032,306.771,192.934,301.62,198.616z
			 M280.311,137.107c-11.487-6.412-25.578,3.933-30.395,13.73c-2.503,5.09-3.68,10.696-4.366,16.292
			c-0.896,7.315-0.954,14.922,1.708,21.825c3.544,9.19,16.095,18.132,26.143,11.912c11.376-7.041,13.579-23.655,15.157-35.377
			C289.793,156.333,289.897,142.458,280.311,137.107z M195.814,145.468c-3.971,6.451-4.425,14.26-4.493,21.727
			c-0.058,6.266,0.098,12.618,1.911,18.644c1.813,6.026,5.468,11.769,11.089,15.069c3.402,1.998,7.639,3.022,11.47,1.923
			c3.584-1.027,6.391-3.785,8.16-6.912c1.769-3.127,2.632-6.632,3.445-10.095c2.174-9.251,4.14-18.74,2.954-28.151
			c-0.916-7.265-4.959-19.904-13.577-22.178C209.329,133.531,199.375,139.684,195.814,145.468z M165.806,230.497
			c5.048,0.419,10.115-2.138,13.037-5.844c2.922-3.706,3.898-8.381,3.57-12.84c-0.328-4.458-1.868-8.757-3.607-12.932
			c-1.703-4.089-3.639-8.157-6.602-11.629c-2.963-3.472-7.068-6.334-11.9-7.3c-4.832-0.966-10.4,0.23-13.664,3.59
			c-3.21,3.305-3.736,7.948-3.874,12.258c-0.222,6.947,0.213,14.046,3.096,20.465c2.883,6.419,8.547,12.122,16.071,14.09
			L165.806,230.497z"/>
		<path style="fill:#FFFFC9;" d="M308.664,242.748c10.566,9.634,23.337,25.708,19.023,40.552
			c-5.253,18.075-27.717,18.001-42.867,12.201c-12.926-4.949-24.928-12.981-38.807-14.22c-11.896-1.062-23.564,3.039-35.428,4.384
			c-11.864,1.345-25.887-1.222-31.583-11.176c-6.328-11.059,1.153-24.954,11.088-33.299c9.935-8.345,22.468-14.028,30.609-23.966
			c3.702-4.518,6.406-9.825,10.864-13.681C259.735,179.178,291.525,227.12,308.664,242.748z M312.172,188.615
			c-5.607,6.185-10.51,13.187-9.576,20.455c0.935,7.269,9.799,14.459,20.325,13.826c6.493-0.39,12.085-3.609,15.348-7.506
			c3.262-3.896,4.551-8.415,5.522-12.866c1.51-6.92,8.253-25.964-2.549-30.772C328.385,166.032,317.323,182.933,312.172,188.615z
			 M290.722,127.385c-0.835-0.474-1.742-0.894-2.725-1.254c-11.083-4.058-22.81,5.11-27.527,14.705
			c-2.503,5.09-3.68,10.696-4.366,16.292c-0.896,7.315-0.954,14.922,1.708,21.824c3.544,9.19,16.095,18.132,26.143,11.912
			c11.376-7.041,13.578-23.653,15.157-35.375C300.465,145.447,300.342,132.846,290.722,127.385z M206.367,135.468
			c-3.971,6.451-4.425,14.26-4.494,21.727c-0.058,6.266,0.098,12.618,1.911,18.644c1.813,6.026,5.468,11.769,11.089,15.069
			c3.402,1.998,7.639,3.022,11.47,1.924c3.584-1.027,6.391-3.785,8.16-6.912c1.769-3.128,2.632-6.632,3.446-10.095
			c2.174-9.251,4.14-18.741,2.954-28.151c-0.916-7.265-4.959-19.903-13.577-22.178C219.881,123.531,209.927,129.683,206.367,135.468
			z M176.359,220.497c5.048,0.419,10.115-2.138,13.037-5.844c2.922-3.706,3.898-8.381,3.57-12.84
			c-0.328-4.459-1.868-8.757-3.607-12.932c-1.703-4.089-3.639-8.157-6.602-11.629c-2.963-3.472-7.068-6.334-11.9-7.3
			c-4.832-0.966-10.4,0.23-13.664,3.59c-3.21,3.305-3.736,7.948-3.874,12.258c-0.222,6.947,0.213,14.046,3.096,20.465
			c2.883,6.419,8.547,12.122,16.071,14.09L176.359,220.497z"/>
	</g>
	<g>
		<path style="fill:#DE7B00;" d="M489.911,360.616l-94.145,2.532l-3.886-84.186l94.077-4.53c2.228-0.107,3.789,2.167,2.889,4.208
			l-15.769,35.738l19.316,41.792C493.466,358.113,492.129,360.509,489.911,360.616z"/>
		<polygon style="fill:#A65200;" points="416.863,301.494 391.88,278.961 394.229,327.751 		"/>
		<path style="fill:#DE7B00;" d="M10.095,381.72l94.083-4.531l-3.813-79.187l-94.044,4.529c-2.236,0.108-3.57,2.537-2.462,4.482
			l19.39,34.028L7.205,377.515C6.308,379.555,7.869,381.827,10.095,381.72z"/>
		<polygon style="fill:#A65200;" points="77.663,322.831 100.365,298.003 102.715,346.792 		"/>
		<path style="fill:#E28D00;" d="M405.795,388.401L96.424,401.298c-8.275,0.398-15.306-5.987-15.704-14.261l-3.092-64.204
			l339.236-21.339l3.193,71.204C420.455,380.972,414.07,388.003,405.795,388.401z"/>
	</g>
	
		<text transform="matrix(0.9983 -0.0579 0.0579 0.9983 154.6023 378.4933)" style="fill:#FFFFFF; font-family:'Lobster-Regular'; font-size:63.8727px;">Pet care</text>
</g>
</svg>
